<?xml version="1.0" standalone="no"?>
<!DOCTYPE svg PUBLIC "-//W3C//DTD SVG 20010904//EN"
 "http://www.w3.org/TR/2001/REC-SVG-20010904/DTD/svg10.dtd">
<svg version="1.0" xmlns="http://www.w3.org/2000/svg"
 width="1280.000000pt" height="1280.000000pt" viewBox="0 0 1280.000000 1280.000000"
 preserveAspectRatio="xMidYMid meet">
<g transform="translate(0.000000,1280.000000) scale(0.100000,-0.100000)"
fill="#ff9800" stroke="none">
<path d="M1965 9957 c-56 -136 -115 -521 -135 -892 -13 -245 -13 -872 0 -1196
14 -340 54 -916 85 -1235 14 -142 30 -342 35 -444 27 -527 94 -935 224 -1346
434 -1379 1512 -2241 3101 -2479 354 -53 570 -65 1150 -65 580 0 798 13 1150
65 1225 184 2163 746 2715 1627 83 132 234 431 289 573 191 489 286 967 321
1610 5 99 21 297 34 440 26 267 56 663 78 1025 17 287 17 1398 0 1590 -31 344
-94 691 -134 746 -12 16 -189 -50 -336 -126 -417 -212 -1109 -704 -1830 -1298
-92 -76 -172 -141 -178 -145 -7 -4 -72 22 -146 57 -490 235 -1035 399 -1518
458 -142 18 -748 18 -890 0 -493 -61 -1013 -218 -1527 -463 -108 -51 -129 -58
-144 -47 -10 7 -100 81 -201 164 -891 734 -1641 1241 -2050 1384 l-80 28 -13
-31z"/>
</g>
</svg>
